<svg width="159" height="38" viewBox="0 0 159 38" fill="none" xmlns="http://www.w3.org/2000/svg">
<path d="M45.8635 12.0706L45.3377 10.5506H43.1431L42.6173 12.0706H41.6576L43.5418 6.77742H44.9496L46.8338 12.0706H45.8635ZM43.4112 9.77807H45.0696L44.2404 7.37469L43.4112 9.77807ZM48.5118 12.1421C48.0368 12.1421 47.6098 12.0849 47.231 11.9705V11.2695C47.6286 11.3887 48.0531 11.4483 48.5047 11.4483C48.8036 11.4483 49.0188 11.4078 49.1504 11.3267C49.2823 11.2456 49.348 11.1264 49.348 10.969C49.348 10.845 49.3141 10.7509 49.2457 10.6865C49.1776 10.6197 49.0576 10.5697 48.8858 10.5363L48.233 10.429C47.8498 10.3622 47.5721 10.2383 47.4003 10.057C47.231 9.87582 47.1463 9.63144 47.1463 9.32386C47.1463 9.07827 47.2122 8.86489 47.3439 8.68367C47.4758 8.50009 47.6769 8.35822 47.9472 8.25807C48.2203 8.15793 48.5612 8.10786 48.9705 8.10786C49.161 8.10786 49.3494 8.11978 49.535 8.14363C49.7209 8.16748 49.8903 8.20085 50.0431 8.24377V8.94476C49.7093 8.84938 49.3564 8.8017 48.9846 8.8017C48.6437 8.8017 48.4024 8.8458 48.2613 8.93403C48.1226 9.01986 48.0531 9.13907 48.0531 9.29167C48.0531 9.40373 48.0862 9.49435 48.1519 9.56349C48.2203 9.63025 48.3378 9.67912 48.5047 9.71012L49.1575 9.82099C49.5364 9.88776 49.8138 10.007 49.9902 10.1786C50.1666 10.3479 50.2548 10.5959 50.2548 10.9225C50.2548 11.1753 50.1878 11.3935 50.0537 11.577C49.9221 11.7583 49.7256 11.8977 49.4645 11.9955C49.2034 12.0932 48.8858 12.1421 48.5118 12.1421ZM52.6341 12.1421C52.2413 12.1421 51.9013 12.067 51.6144 11.9168C51.3297 11.7666 51.1087 11.5413 50.951 11.2409C50.7958 10.938 50.7182 10.5661 50.7182 10.125C50.7182 9.46216 50.8851 8.96025 51.2192 8.6193C51.5555 8.27835 52.0272 8.10786 52.6341 8.10786C53.2434 8.10786 53.7149 8.27714 54.049 8.61572C54.3831 8.9543 54.55 9.45619 54.55 10.1214C54.55 10.5625 54.4713 10.9345 54.3136 11.2373C54.1584 11.5377 53.9372 11.7642 53.6503 11.9168C53.3634 12.067 53.0247 12.1421 52.6341 12.1421ZM52.6341 11.3911C52.947 11.3911 53.1845 11.2921 53.3469 11.0942C53.5092 10.8963 53.5903 10.5744 53.5903 10.1286C53.5903 9.67554 53.5092 9.35129 53.3469 9.15577C53.1845 8.95788 52.947 8.85892 52.6341 8.85892C52.3212 8.85892 52.0837 8.95667 51.9214 9.15219C51.7615 9.34771 51.6814 9.6696 51.6814 10.1178C51.6814 10.5685 51.7615 10.8939 51.9214 11.0942C52.0837 11.2921 52.3212 11.3911 52.6341 11.3911ZM57.1732 12.1421C56.5123 12.1421 56.0077 11.974 55.6595 11.6378C55.3137 11.3017 55.1408 10.7986 55.1408 10.1286C55.1408 9.45619 55.3232 8.95191 55.6877 8.61572C56.0547 8.27714 56.5886 8.10786 57.2897 8.10786C57.626 8.10786 57.9318 8.14363 58.207 8.21516V8.98052C57.9201 8.91854 57.6496 8.88753 57.3955 8.88753C56.958 8.88753 56.6369 8.98528 56.4322 9.1808C56.2276 9.37632 56.1253 9.68866 56.1253 10.1178C56.1253 10.5518 56.2216 10.8677 56.4146 11.0656C56.6076 11.2635 56.8991 11.3625 57.2897 11.3625C57.4284 11.3625 57.5695 11.3505 57.7131 11.3267C57.8566 11.3028 58.0211 11.2647 58.207 11.2122V11.9812C57.8965 12.0885 57.5519 12.1421 57.1732 12.1421ZM58.879 12.0706V8.16866H59.8387V12.0706H58.879ZM59.3589 7.50344C59.1566 7.50344 59.0049 7.45934 58.9037 7.37111C58.8049 7.28288 58.7555 7.15652 58.7555 6.992C58.7555 6.82749 58.8049 6.70113 58.9037 6.6129C59.0049 6.52467 59.1566 6.48057 59.3589 6.48057C59.5611 6.48057 59.7117 6.52467 59.8105 6.6129C59.9117 6.70113 59.9622 6.82749 59.9622 6.992C59.9622 7.15652 59.9117 7.28288 59.8105 7.37111C59.7117 7.45934 59.5611 7.50344 59.3589 7.50344ZM62.1276 8.10786C62.5439 8.10786 62.8802 8.15912 63.1367 8.26165C63.3932 8.36179 63.5837 8.5287 63.7083 8.76236C63.8353 8.99364 63.8989 9.30956 63.8989 9.71012V12.0706H63.1014L63.0379 11.67H62.9885C62.8591 11.8226 62.6957 11.9394 62.4981 12.0205C62.3029 12.0992 62.0888 12.1385 61.8559 12.1385C61.5831 12.1385 61.3489 12.0932 61.1537 12.0026C60.9586 11.9097 60.8104 11.7797 60.7091 11.6128C60.6079 11.4459 60.5574 11.2516 60.5574 11.0298C60.5574 10.6698 60.6869 10.392 60.9456 10.1965C61.2042 9.99863 61.6113 9.87822 62.1664 9.8353L62.9603 9.76019V9.64217C62.9603 9.43713 62.9261 9.27737 62.858 9.16292C62.792 9.04608 62.6875 8.96382 62.5439 8.91615C62.4028 8.86607 62.2123 8.84104 61.9723 8.84104C61.803 8.84104 61.6195 8.85535 61.4219 8.88396C61.2243 8.91257 61.0373 8.95549 60.8609 9.01271V8.28669C61.0468 8.22946 61.2525 8.18536 61.4783 8.15436C61.7066 8.12335 61.9229 8.10786 62.1276 8.10786ZM62.1452 11.4697C62.2934 11.4697 62.4381 11.4423 62.5792 11.3875C62.7228 11.3327 62.8498 11.2492 62.9603 11.1371V10.3181L62.2511 10.3825C61.99 10.4087 61.8019 10.4683 61.6865 10.5613C61.5712 10.6519 61.5136 10.7807 61.5136 10.9476C61.5136 11.1145 61.5666 11.2432 61.6724 11.3338C61.7783 11.4244 61.9359 11.4697 62.1452 11.4697ZM66.6235 12.1421C65.9623 12.1421 65.4578 11.974 65.1098 11.6378C64.764 11.3017 64.5911 10.7986 64.5911 10.1286C64.5911 9.45619 64.7732 8.95191 65.138 8.61572C65.5049 8.27714 66.0388 8.10786 66.7399 8.10786C67.0762 8.10786 67.3821 8.14363 67.6573 8.21516V8.98052C67.3702 8.91854 67.0998 8.88753 66.8458 8.88753C66.4082 8.88753 66.0871 8.98528 65.8825 9.1808C65.6778 9.37632 65.5755 9.68866 65.5755 10.1178C65.5755 10.5518 65.6719 10.8677 65.8649 11.0656C66.0576 11.2635 66.3493 11.3625 66.7399 11.3625C66.8786 11.3625 67.0198 11.3505 67.1633 11.3267C67.3067 11.3028 67.4714 11.2647 67.6573 11.2122V11.9812C67.3468 12.0885 67.0021 12.1421 66.6235 12.1421ZM68.3292 12.0706V8.16866H69.289V12.0706H68.3292ZM68.8091 7.50344C68.6067 7.50344 68.4549 7.45934 68.3539 7.37111C68.2551 7.28288 68.2057 7.15652 68.2057 6.992C68.2057 6.82749 68.2551 6.70113 68.3539 6.6129C68.4549 6.52467 68.6067 6.48057 68.8091 6.48057C69.0113 6.48057 69.1619 6.52467 69.2607 6.6129C69.3617 6.70113 69.4125 6.82749 69.4125 6.992C69.4125 7.15652 69.3617 7.28288 69.2607 7.37111C69.1619 7.45934 69.0113 7.50344 68.8091 7.50344ZM71.9342 12.1421C71.5412 12.1421 71.2014 12.067 70.9145 11.9168C70.6298 11.7666 70.4086 11.5413 70.2511 11.2409C70.0959 10.938 70.0183 10.5661 70.0183 10.125C70.0183 9.46216 70.1852 8.96025 70.5193 8.6193C70.8556 8.27835 71.3273 8.10786 71.9342 8.10786C72.5433 8.10786 73.015 8.27714 73.3491 8.61572C73.683 8.9543 73.8501 9.45619 73.8501 10.1214C73.8501 10.5625 73.7712 10.9345 73.6137 11.2373C73.4585 11.5377 73.2373 11.7642 72.9504 11.9168C72.6633 12.067 72.3245 12.1421 71.9342 12.1421ZM71.9342 11.3911C72.2469 11.3911 72.4846 11.2921 72.6469 11.0942C72.8092 10.8963 72.8904 10.5744 72.8904 10.1286C72.8904 9.67554 72.8092 9.35129 72.6469 9.15577C72.4846 8.95788 72.2469 8.85892 71.9342 8.85892C71.6213 8.85892 71.3838 8.95667 71.2214 9.15219C71.0613 9.34771 70.9815 9.6696 70.9815 10.1178C70.9815 10.5685 71.0613 10.8939 71.2214 11.0942C71.3838 11.2921 71.6213 11.3911 71.9342 11.3911ZM71.4826 7.63577L72.3364 6.29102H73.3809L72.3858 7.63577H71.4826ZM74.5832 8.16866H75.3735L75.437 8.57638H75.4864C75.6465 8.42617 75.8336 8.31054 76.0475 8.22946C76.2616 8.14839 76.4898 8.10786 76.732 8.10786C77.1649 8.10786 77.5047 8.23422 77.7517 8.48697C78.0011 8.73732 78.1257 9.13073 78.1257 9.6672V12.0706H77.166V9.71727C77.166 9.43831 77.106 9.23921 76.986 9.12C76.8685 9.0008 76.6945 8.94118 76.4638 8.94118C76.2922 8.94118 76.124 8.97455 75.9593 9.04132C75.7947 9.10809 75.6558 9.20823 75.5429 9.34175V12.0706H74.5832V8.16866ZM83.4556 12.1385C81.6067 12.1385 80.6823 11.2373 80.6823 9.43473C80.6823 8.53585 80.9246 7.85751 81.4091 7.39972C81.8961 6.93954 82.596 6.70946 83.5086 6.70946C83.9344 6.70946 84.3366 6.75714 84.7153 6.85252V7.66796C84.3366 7.57497 83.958 7.52847 83.5791 7.52847C82.9464 7.52847 82.476 7.67987 82.1677 7.98269C81.8621 8.28311 81.7091 8.76236 81.7091 9.42043C81.7091 9.87345 81.7774 10.2406 81.9137 10.522C82.0526 10.8009 82.2549 11.0036 82.5206 11.13C82.7888 11.2563 83.1253 11.3195 83.5297 11.3195C83.9249 11.3195 84.3201 11.2599 84.7153 11.1407V11.9561C84.3342 12.0777 83.9143 12.1385 83.4556 12.1385ZM86.8959 12.1421C86.5029 12.1421 86.163 12.067 85.8761 11.9168C85.5914 11.7666 85.3702 11.5413 85.2128 11.2409C85.0575 10.938 84.9799 10.5661 84.9799 10.125C84.9799 9.46216 85.1469 8.96025 85.4809 8.6193C85.8173 8.27835 86.289 8.10786 86.8959 8.10786C87.5049 8.10786 87.9767 8.27714 88.3108 8.61572C88.6446 8.9543 88.8118 9.45619 88.8118 10.1214C88.8118 10.5625 88.7328 10.9345 88.5754 11.2373C88.4201 11.5377 88.1989 11.7642 87.912 11.9168C87.6249 12.067 87.2862 12.1421 86.8959 12.1421ZM86.8959 11.3911C87.2086 11.3911 87.4463 11.2921 87.6086 11.0942C87.7709 10.8963 87.8521 10.5744 87.8521 10.1286C87.8521 9.67554 87.7709 9.35129 87.6086 9.15577C87.4463 8.95788 87.2086 8.85892 86.8959 8.85892C86.5829 8.85892 86.3454 8.95667 86.1831 9.15219C86.023 9.34771 85.9432 9.6696 85.9432 10.1178C85.9432 10.5685 86.023 10.8939 86.1831 11.0942C86.3454 11.2921 86.5829 11.3911 86.8959 11.3911ZM91.3183 12.1421C90.9255 12.1421 90.5857 12.067 90.2986 11.9168C90.0141 11.7666 89.7929 11.5413 89.6352 11.2409C89.48 10.938 89.4024 10.5661 89.4024 10.125C89.4024 9.46216 89.5695 8.96025 89.9034 8.6193C90.2399 8.27835 90.7114 8.10786 91.3183 8.10786C91.9276 8.10786 92.3993 8.27714 92.7332 8.61572C93.0673 8.9543 93.2342 9.45619 93.2342 10.1214C93.2342 10.5625 93.1555 10.9345 92.9978 11.2373C92.8426 11.5377 92.6216 11.7642 92.3345 11.9168C92.0476 12.067 91.7089 12.1421 91.3183 12.1421ZM91.3183 11.3911C91.6312 11.3911 91.8687 11.2921 92.031 11.0942C92.1934 10.8963 92.2745 10.5744 92.2745 10.1286C92.2745 9.67554 92.1934 9.35129 92.031 9.15577C91.8687 8.95788 91.6312 8.85892 91.3183 8.85892C91.0056 8.85892 90.7679 8.95667 90.6056 9.15219C90.4457 9.34771 90.3656 9.6696 90.3656 10.1178C90.3656 10.5685 90.4457 10.8939 90.6056 11.0942C90.7679 11.2921 91.0056 11.3911 91.3183 11.3911ZM93.9677 8.16866H94.7722L94.8322 8.59069H94.878C95.0121 8.44047 95.1755 8.32245 95.3685 8.23662C95.5637 8.15078 95.7789 8.10786 96.0142 8.10786C96.334 8.10786 96.6187 8.17463 96.8681 8.30815C97.1197 8.44166 97.3184 8.65267 97.4644 8.94118C97.6126 9.22969 97.6867 9.59686 97.6867 10.0427C97.6867 10.7247 97.5032 11.2456 97.1362 11.6057C96.7715 11.9633 96.2447 12.1421 95.5555 12.1421C95.3601 12.1421 95.1508 12.1266 94.9274 12.0956V13.6442H93.9677V8.16866ZM95.5238 11.3946C95.9306 11.3946 96.2316 11.2921 96.427 11.0871C96.6246 10.882 96.7234 10.5589 96.7234 10.1178C96.7234 9.67912 96.6387 9.36678 96.4694 9.1808C96.3 8.99483 96.0623 8.90184 95.7566 8.90184C95.5965 8.90184 95.4437 8.93164 95.2979 8.99125C95.1544 9.05087 95.0309 9.14265 94.9274 9.26664V11.3303C95.1039 11.3732 95.3026 11.3946 95.5238 11.3946ZM101.797 10.404H99.2315C99.2434 10.6519 99.2939 10.8498 99.3832 10.9977C99.4749 11.1431 99.615 11.2492 99.8031 11.316C99.9914 11.3827 100.241 11.4161 100.551 11.4161C100.859 11.4161 101.202 11.3708 101.578 11.2802V11.9991C101.188 12.0944 100.799 12.1421 100.414 12.1421C99.6866 12.1421 99.1481 11.98 98.7975 11.6557C98.4495 11.3314 98.2753 10.8212 98.2753 10.125C98.2753 9.69342 98.3458 9.32744 98.487 9.02702C98.6305 8.7242 98.8376 8.49531 99.108 8.34033C99.3786 8.18536 99.7056 8.10786 100.089 8.10786C100.644 8.10786 101.068 8.28311 101.359 8.6336C101.651 8.98171 101.797 9.48838 101.797 10.1536V10.404ZM100.075 8.73017C99.802 8.73017 99.5949 8.8184 99.4538 8.99483C99.3126 9.16889 99.2374 9.44904 99.2279 9.8353H100.9C100.891 9.44904 100.818 9.16889 100.682 8.99483C100.545 8.8184 100.343 8.73017 100.075 8.73017ZM102.482 8.16866H103.269L103.343 8.66579H103.393C103.515 8.48936 103.674 8.35464 103.869 8.26165C104.067 8.16866 104.28 8.12217 104.511 8.12217C104.631 8.12217 104.745 8.13171 104.853 8.15078V9.02344C104.743 9.00437 104.611 8.99483 104.458 8.99483C104.27 8.99483 104.082 9.03298 103.894 9.10927C103.705 9.1832 103.555 9.28928 103.442 9.42758V12.0706H102.482V8.16866ZM106.551 8.10786C106.967 8.10786 107.304 8.15912 107.56 8.26165C107.816 8.36179 108.007 8.5287 108.132 8.76236C108.259 8.99364 108.322 9.30956 108.322 9.71012V12.0706H107.525L107.461 11.67H107.412C107.282 11.8226 107.119 11.9394 106.921 12.0205C106.726 12.0992 106.512 12.1385 106.279 12.1385C106.006 12.1385 105.772 12.0932 105.577 12.0026C105.382 11.9097 105.234 11.7797 105.132 11.6128C105.031 11.4459 104.981 11.2516 104.981 11.0298C104.981 10.6698 105.11 10.392 105.369 10.1965C105.628 9.99863 106.035 9.87822 106.59 9.8353L107.383 9.76019V9.64217C107.383 9.43713 107.35 9.27737 107.281 9.16292C107.215 9.04608 107.111 8.96382 106.967 8.91615C106.826 8.86607 106.635 8.84104 106.396 8.84104C106.226 8.84104 106.043 8.85535 105.845 8.88396C105.647 8.91257 105.46 8.95549 105.284 9.01271V8.28669C105.47 8.22946 105.676 8.18536 105.902 8.15436C106.13 8.12335 106.346 8.10786 106.551 8.10786ZM106.568 11.4697C106.717 11.4697 106.861 11.4423 107.002 11.3875C107.146 11.3327 107.273 11.2492 107.383 11.1371V10.3181L106.674 10.3825C106.413 10.4087 106.225 10.4683 106.11 10.5613C105.995 10.6519 105.937 10.7807 105.937 10.9476C105.937 11.1145 105.99 11.2432 106.096 11.3338C106.201 11.4244 106.359 11.4697 106.568 11.4697ZM110.687 12.1385C110.367 12.1385 110.081 12.0706 109.829 11.9347C109.577 11.7988 109.379 11.5866 109.233 11.2981C109.087 11.0072 109.014 10.6412 109.014 10.2001C109.014 9.51818 109.198 8.9984 109.565 8.64076C109.932 8.28311 110.459 8.10429 111.145 8.10429C111.341 8.10429 111.55 8.11978 111.774 8.15078V6.29102H112.733V12.0706H111.929L111.872 11.6557H111.823C111.689 11.8059 111.524 11.924 111.329 12.0098C111.136 12.0956 110.922 12.1385 110.687 12.1385ZM110.944 11.3446C111.104 11.3446 111.256 11.3148 111.399 11.2552C111.545 11.1955 111.67 11.1038 111.774 10.9798V8.91257C111.578 8.86965 111.379 8.84819 111.177 8.84819C110.77 8.84819 110.468 8.95191 110.27 9.15935C110.075 9.36439 109.978 9.68748 109.978 10.1286C109.978 10.5649 110.061 10.8772 110.228 11.0656C110.397 11.2516 110.636 11.3446 110.944 11.3446ZM115.38 12.1421C114.987 12.1421 114.648 12.067 114.361 11.9168C114.076 11.7666 113.855 11.5413 113.697 11.2409C113.542 10.938 113.465 10.5661 113.465 10.125C113.465 9.46216 113.631 8.96025 113.966 8.6193C114.302 8.27835 114.774 8.10786 115.38 8.10786C115.99 8.10786 116.461 8.27714 116.795 8.61572C117.129 8.9543 117.296 9.45619 117.296 10.1214C117.296 10.5625 117.217 10.9345 117.06 11.2373C116.905 11.5377 116.684 11.7642 116.397 11.9168C116.11 12.067 115.771 12.1421 115.38 12.1421ZM115.38 11.3911C115.693 11.3911 115.931 11.2921 116.093 11.0942C116.256 10.8963 116.337 10.5744 116.337 10.1286C116.337 9.67554 116.256 9.35129 116.093 9.15577C115.931 8.95788 115.693 8.85892 115.38 8.85892C115.068 8.85892 114.83 8.95667 114.668 9.15219C114.508 9.34771 114.428 9.6696 114.428 10.1178C114.428 10.5685 114.508 10.8939 114.668 11.0942C114.83 11.2921 115.068 11.3911 115.38 11.3911ZM118.03 8.16866H118.816L118.891 8.66579H118.94C119.062 8.48936 119.221 8.35464 119.416 8.26165C119.614 8.16866 119.828 8.12217 120.058 8.12217C120.178 8.12217 120.292 8.13171 120.401 8.15078V9.02344C120.29 9.00437 120.158 8.99483 120.006 8.99483C119.817 8.99483 119.629 9.03298 119.441 9.10927C119.253 9.1832 119.102 9.28928 118.989 9.42758V12.0706H118.03V8.16866ZM122.098 8.10786C122.514 8.10786 122.851 8.15912 123.107 8.26165C123.364 8.36179 123.554 8.5287 123.679 8.76236C123.806 8.99364 123.87 9.30956 123.87 9.71012V12.0706H123.072L123.008 11.67H122.959C122.83 11.8226 122.666 11.9394 122.469 12.0205C122.273 12.0992 122.059 12.1385 121.826 12.1385C121.554 12.1385 121.32 12.0932 121.124 12.0026C120.929 11.9097 120.781 11.7797 120.68 11.6128C120.579 11.4459 120.528 11.2516 120.528 11.0298C120.528 10.6698 120.657 10.392 120.916 10.1965C121.175 9.99863 121.582 9.87822 122.137 9.8353L122.931 9.76019V9.64217C122.931 9.43713 122.897 9.27737 122.829 9.16292C122.763 9.04608 122.658 8.96382 122.514 8.91615C122.373 8.86607 122.183 8.84104 121.943 8.84104C121.774 8.84104 121.59 8.85535 121.392 8.88396C121.195 8.91257 121.008 8.95549 120.831 9.01271V8.28669C121.017 8.22946 121.223 8.18536 121.449 8.15436C121.677 8.12335 121.893 8.10786 122.098 8.10786ZM122.116 11.4697C122.264 11.4697 122.409 11.4423 122.55 11.3875C122.693 11.3327 122.82 11.2492 122.931 11.1371V10.3181L122.222 10.3825C121.961 10.4087 121.772 10.4683 121.657 10.5613C121.542 10.6519 121.484 10.7807 121.484 10.9476C121.484 11.1145 121.537 11.2432 121.643 11.3338C121.749 11.4244 121.907 11.4697 122.116 11.4697ZM126.626 12.0706V6.77742H127.607V8.92687H130.162V6.77742H131.143V12.0706H130.162V9.79238H127.607V12.0706H126.626ZM133.848 12.1421C133.455 12.1421 133.115 12.067 132.829 11.9168C132.544 11.7666 132.323 11.5413 132.165 11.2409C132.01 10.938 131.932 10.5661 131.932 10.125C131.932 9.46216 132.099 8.96025 132.433 8.6193C132.77 8.27835 133.241 8.10786 133.848 8.10786C134.457 8.10786 134.929 8.27714 135.263 8.61572C135.597 8.9543 135.764 9.45619 135.764 10.1214C135.764 10.5625 135.685 10.9345 135.528 11.2373C135.373 11.5377 135.151 11.7642 134.864 11.9168C134.577 12.067 134.239 12.1421 133.848 12.1421ZM133.848 11.3911C134.161 11.3911 134.399 11.2921 134.561 11.0942C134.723 10.8963 134.804 10.5744 134.804 10.1286C134.804 9.67554 134.723 9.35129 134.561 9.15577C134.399 8.95788 134.161 8.85892 133.848 8.85892C133.535 8.85892 133.298 8.95667 133.136 9.15219C132.975 9.34771 132.896 9.6696 132.896 10.1178C132.896 10.5685 132.975 10.8939 133.136 11.0942C133.298 11.2921 133.535 11.3911 133.848 11.3911ZM137.655 12.1421C137.18 12.1421 136.753 12.0849 136.374 11.9705V11.2695C136.771 11.3887 137.196 11.4483 137.648 11.4483C137.946 11.4483 138.162 11.4078 138.293 11.3267C138.425 11.2456 138.491 11.1264 138.491 10.969C138.491 10.845 138.457 10.7509 138.389 10.6865C138.32 10.6197 138.2 10.5697 138.029 10.5363L137.376 10.429C136.993 10.3622 136.715 10.2383 136.543 10.057C136.374 9.87582 136.289 9.63144 136.289 9.32386C136.289 9.07827 136.355 8.86489 136.487 8.68367C136.619 8.50009 136.82 8.35822 137.09 8.25807C137.363 8.15793 137.704 8.10786 138.113 8.10786C138.304 8.10786 138.492 8.11978 138.678 8.14363C138.864 8.16748 139.033 8.20085 139.186 8.24377V8.94476C138.852 8.84938 138.499 8.8017 138.128 8.8017C137.786 8.8017 137.545 8.8458 137.404 8.93403C137.265 9.01986 137.196 9.13907 137.196 9.29167C137.196 9.40373 137.229 9.49435 137.295 9.56349C137.363 9.63025 137.481 9.67912 137.648 9.71012L138.3 9.82099C138.679 9.88776 138.957 10.007 139.133 10.1786C139.31 10.3479 139.398 10.5959 139.398 10.9225C139.398 11.1753 139.331 11.3935 139.197 11.577C139.065 11.7583 138.869 11.8977 138.607 11.9955C138.346 12.0932 138.029 12.1421 137.655 12.1421ZM140.059 8.16866H140.863L140.923 8.59069H140.969C141.103 8.44047 141.267 8.32245 141.459 8.23662C141.655 8.15078 141.87 8.10786 142.105 8.10786C142.425 8.10786 142.71 8.17463 142.959 8.30815C143.211 8.44166 143.409 8.65267 143.555 8.94118C143.703 9.22969 143.777 9.59686 143.777 10.0427C143.777 10.7247 143.594 11.2456 143.227 11.6057C142.863 11.9633 142.336 12.1421 141.646 12.1421C141.451 12.1421 141.242 12.1266 141.018 12.0956V13.6442H140.059V8.16866ZM141.615 11.3946C142.022 11.3946 142.323 11.2921 142.518 11.0871C142.715 10.882 142.814 10.5589 142.814 10.1178C142.814 9.67912 142.73 9.36678 142.56 9.1808C142.391 8.99483 142.153 8.90184 141.847 8.90184C141.688 8.90184 141.535 8.93164 141.389 8.99125C141.245 9.05087 141.122 9.14265 141.018 9.26664V11.3303C141.195 11.3732 141.394 11.3946 141.615 11.3946ZM144.481 12.0706V8.16866H145.441V12.0706H144.481ZM144.961 7.50344C144.759 7.50344 144.607 7.45934 144.506 7.37111C144.407 7.28288 144.358 7.15652 144.358 6.992C144.358 6.82749 144.407 6.70113 144.506 6.6129C144.607 6.52467 144.759 6.48057 144.961 6.48057C145.164 6.48057 145.314 6.52467 145.413 6.6129C145.514 6.70113 145.564 6.82749 145.564 6.992C145.564 7.15652 145.514 7.28288 145.413 7.37111C145.314 7.45934 145.164 7.50344 144.961 7.50344ZM148.34 11.3481C148.467 11.3481 148.62 11.3291 148.799 11.2909V12.0599C148.564 12.1147 148.326 12.1421 148.086 12.1421C147.124 12.1421 146.643 11.6665 146.643 10.7151V8.94118H145.944V8.16866H146.643L146.812 6.77742H147.603V8.16866H148.764V8.94118H147.603V10.547C147.603 10.8379 147.662 11.0441 147.779 11.1657C147.897 11.2873 148.084 11.3481 148.34 11.3481ZM150.705 8.10786C151.122 8.10786 151.458 8.15912 151.714 8.26165C151.971 8.36179 152.161 8.5287 152.286 8.76236C152.413 8.99364 152.477 9.30956 152.477 9.71012V12.0706H151.679L151.616 11.67H151.566C151.437 11.8226 151.273 11.9394 151.076 12.0205C150.88 12.0992 150.667 12.1385 150.434 12.1385C150.161 12.1385 149.927 12.0932 149.732 12.0026C149.536 11.9097 149.388 11.7797 149.287 11.6128C149.186 11.4459 149.135 11.2516 149.135 11.0298C149.135 10.6698 149.264 10.392 149.523 10.1965C149.782 9.99863 150.189 9.87822 150.744 9.8353L151.538 9.76019V9.64217C151.538 9.43713 151.504 9.27737 151.436 9.16292C151.37 9.04608 151.265 8.96382 151.122 8.91615C150.981 8.86607 150.79 8.84104 150.55 8.84104C150.381 8.84104 150.197 8.85535 150 8.88396C149.802 8.91257 149.615 8.95549 149.439 9.01271V8.28669C149.624 8.22946 149.83 8.18536 150.056 8.15436C150.284 8.12335 150.501 8.10786 150.705 8.10786ZM150.723 11.4697C150.871 11.4697 151.016 11.4423 151.157 11.3875C151.3 11.3327 151.427 11.2492 151.538 11.1371V10.3181L150.829 10.3825C150.568 10.4087 150.379 10.4683 150.264 10.5613C150.149 10.6519 150.091 10.7807 150.091 10.9476C150.091 11.1145 150.144 11.2432 150.25 11.3338C150.356 11.4244 150.513 11.4697 150.723 11.4697ZM153.366 12.0706V6.29102H154.326V12.0706H153.366Z" fill="#E7EFFF"/>
<path d="M40.7745 29.9529V18.7049H43.3388V27.8705H48.8048V29.9529H40.7745ZM52.7529 30.0897C51.7881 30.0897 51.0284 29.8137 50.4735 29.2613C49.9187 28.7041 49.6413 27.835 49.6413 26.6545V21.6385H52.1456V26.5101C52.1456 27.0269 52.2505 27.3969 52.4605 27.6197C52.6704 27.8377 52.9778 27.9465 53.3827 27.9465C53.6826 27.9465 53.9801 27.8857 54.275 27.7641C54.5749 27.6374 54.8248 27.4577 55.0248 27.2245V21.6385H57.5291V29.9529H55.4746L55.3172 29.1397H55.2122C54.8772 29.4489 54.4975 29.6845 54.0725 29.8465C53.6527 30.0086 53.2127 30.0897 52.7529 30.0897ZM63.5184 30.1125C62.0236 30.1125 60.884 29.7502 60.0993 29.0257C59.3145 28.3013 58.9221 27.2321 58.9221 25.8185C58.9221 24.3949 59.3319 23.3206 60.1518 22.5961C60.9715 21.8716 62.1687 21.5093 63.7433 21.5093C64.503 21.5093 65.1803 21.5803 65.7752 21.7221V23.6905C65.1454 23.5689 64.5606 23.5081 64.0207 23.5081C63.1408 23.5081 62.496 23.693 62.0863 24.0629C61.6814 24.4277 61.4789 25.0078 61.4789 25.8033C61.4789 26.5989 61.6739 27.1814 62.0638 27.5513C62.4537 27.9213 63.0409 28.1061 63.8258 28.1061C64.1206 28.1061 64.4155 28.0833 64.7105 28.0377C65.0054 27.9921 65.3602 27.9186 65.7752 27.8173V29.7857C65.0903 30.0037 64.3381 30.1125 63.5184 30.1125ZM66.9967 29.9529V21.6385H69.501V29.9529H66.9967ZM68.2489 20.4301C67.734 20.4301 67.3491 20.3237 67.0942 20.1109C66.8393 19.8931 66.7118 19.5789 66.7118 19.1685C66.7118 18.7531 66.8393 18.4389 67.0942 18.2261C67.3491 18.0083 67.734 17.8993 68.2489 17.8993C68.7638 17.8993 69.1487 18.0083 69.4036 18.2261C69.6585 18.4389 69.786 18.7531 69.786 19.1685C69.786 19.5789 69.6585 19.8931 69.4036 20.1109C69.1487 20.3237 68.7638 20.4301 68.2489 20.4301ZM75.1904 30.1125C74.3156 30.1125 73.5559 29.9505 72.9111 29.6261C72.2662 29.2969 71.7689 28.8105 71.419 28.1669C71.069 27.5185 70.8941 26.7305 70.8941 25.8033C70.8941 24.871 71.0641 24.0857 71.404 23.4473C71.7438 22.8038 72.2338 22.32 72.8736 21.9957C73.5133 21.6715 74.2856 21.5093 75.1904 21.5093C76.0952 21.5093 76.8675 21.6715 77.5073 21.9957C78.147 22.32 78.6344 22.8038 78.9694 23.4473C79.3092 24.0857 79.4792 24.871 79.4792 25.8033C79.4792 26.7254 79.3044 27.5109 78.9544 28.1593C78.6044 28.8029 78.1071 29.2893 77.4623 29.6185C76.8226 29.9478 76.0653 30.1125 75.1904 30.1125ZM75.1904 28.1745C75.7852 28.1745 76.2326 27.9897 76.5326 27.6197C76.8375 27.2498 76.9899 26.6469 76.9899 25.8109C76.9899 24.9649 76.8375 24.3593 76.5326 23.9945C76.2326 23.6246 75.7852 23.4397 75.1904 23.4397C74.5957 23.4397 74.1458 23.6221 73.8408 23.9869C73.5358 24.3517 73.3834 24.9546 73.3834 25.7957C73.3834 26.6418 73.5334 27.2498 73.8333 27.6197C74.1383 27.9897 74.5906 28.1745 75.1904 28.1745ZM94.4446 18.7049H97.5413V29.9529H95.1494V22.0109L92.2852 28.3265H90.1483L87.2916 22.2465V29.9529H84.8923V18.7049H87.9964L91.258 25.7957L94.4446 18.7049ZM106.924 26.5025H101.556C101.586 26.9433 101.688 27.2905 101.863 27.5437C102.038 27.7921 102.313 27.9745 102.688 28.0909C103.068 28.2025 103.588 28.2581 104.248 28.2581C104.922 28.2581 105.652 28.1745 106.437 28.0073V29.8313C105.582 30.0189 104.727 30.1125 103.873 30.1125C102.773 30.1125 101.868 29.9605 101.158 29.6565C100.454 29.3525 99.9287 28.8865 99.5838 28.2581C99.244 27.6249 99.0739 26.809 99.0739 25.8109C99.0739 24.8989 99.2314 24.1213 99.5463 23.4777C99.8612 22.8342 100.321 22.3453 100.926 22.0109C101.531 21.6765 102.263 21.5093 103.123 21.5093C104.363 21.5093 105.305 21.8868 105.95 22.6417C106.599 23.3917 106.924 24.4733 106.924 25.8869V26.5025ZM103.093 23.0749C102.588 23.0749 102.208 23.2345 101.953 23.5537C101.703 23.8678 101.568 24.3821 101.548 25.0965H104.607C104.588 24.3821 104.453 23.8678 104.203 23.5537C103.958 23.2345 103.588 23.0749 103.093 23.0749ZM108.218 29.9529V17.6713H110.722V29.9529H108.218ZM119.965 26.5025H114.597C114.627 26.9433 114.729 27.2905 114.904 27.5437C115.079 27.7921 115.354 27.9745 115.729 28.0909C116.109 28.2025 116.629 28.2581 117.289 28.2581C117.963 28.2581 118.693 28.1745 119.478 28.0073V29.8313C118.623 30.0189 117.768 30.1125 116.914 30.1125C115.814 30.1125 114.909 29.9605 114.199 29.6565C113.495 29.3525 112.97 28.8865 112.625 28.2581C112.285 27.6249 112.115 26.809 112.115 25.8109C112.115 24.8989 112.272 24.1213 112.587 23.4777C112.902 22.8342 113.362 22.3453 113.967 22.0109C114.572 21.6765 115.304 21.5093 116.164 21.5093C117.404 21.5093 118.346 21.8868 118.991 22.6417C119.641 23.3917 119.965 24.4733 119.965 25.8869V26.5025ZM116.134 23.0749C115.629 23.0749 115.249 23.2345 114.994 23.5537C114.744 23.8678 114.609 24.3821 114.589 25.0965H117.648C117.629 24.3821 117.494 23.8678 117.244 23.5537C116.999 23.2345 116.629 23.0749 116.134 23.0749ZM114.949 20.5821L116.749 17.6713H119.47L117.304 20.5821H114.949ZM121.259 21.6385H123.313L123.478 22.4593H123.591C123.916 22.1553 124.3 21.9223 124.745 21.7601C125.19 21.5929 125.665 21.5093 126.17 21.5093C127.115 21.5093 127.86 21.788 128.404 22.3453C128.954 22.9026 129.229 23.7717 129.229 24.9521V29.9529H126.725V25.0965C126.725 24.5746 126.617 24.2049 126.402 23.9869C126.188 23.7641 125.868 23.6525 125.443 23.6525C125.128 23.6525 124.818 23.7133 124.513 23.8349C124.213 23.9565 123.963 24.1365 123.763 24.3745V29.9529H121.259V21.6385ZM134.174 30.0973C133.485 30.0973 132.867 29.9529 132.322 29.6641C131.777 29.3753 131.345 28.9245 131.025 28.3113C130.705 27.6933 130.545 26.9129 130.545 25.9705C130.545 25.0129 130.725 24.1997 131.085 23.5309C131.45 22.8621 131.977 22.3554 132.667 22.0109C133.362 21.6664 134.199 21.4941 135.179 21.4941C135.524 21.4941 135.936 21.5195 136.416 21.5701V17.6713H138.921V29.9529H136.821L136.686 29.1017H136.566C136.281 29.4109 135.934 29.6541 135.524 29.8313C135.119 30.0086 134.669 30.0973 134.174 30.0973ZM134.864 28.0529C135.159 28.0529 135.441 28.0022 135.711 27.9009C135.986 27.7997 136.221 27.645 136.416 27.4373V23.5157C136.056 23.4449 135.681 23.4093 135.292 23.4093C134.527 23.4093 133.959 23.6018 133.59 23.9869C133.22 24.3669 133.035 24.9673 133.035 25.7881C133.035 26.5989 133.192 27.1789 133.507 27.5285C133.827 27.8781 134.279 28.0529 134.864 28.0529ZM148.16 26.5025H142.791C142.821 26.9433 142.924 27.2905 143.099 27.5437C143.274 27.7921 143.549 27.9745 143.924 28.0909C144.304 28.2025 144.823 28.2581 145.483 28.2581C146.158 28.2581 146.888 28.1745 147.673 28.0073V29.8313C146.818 30.0189 145.963 30.1125 145.108 30.1125C144.009 30.1125 143.104 29.9605 142.394 29.6565C141.689 29.3525 141.164 28.8865 140.82 28.2581C140.48 27.6249 140.31 26.809 140.31 25.8109C140.31 24.8989 140.467 24.1213 140.782 23.4777C141.097 22.8342 141.557 22.3453 142.162 22.0109C142.767 21.6765 143.499 21.5093 144.359 21.5093C145.598 21.5093 146.54 21.8868 147.185 22.6417C147.835 23.3917 148.16 24.4733 148.16 25.8869V26.5025ZM144.329 23.0749C143.824 23.0749 143.444 23.2345 143.189 23.5537C142.939 23.8678 142.804 24.3821 142.784 25.0965H145.843C145.823 24.3821 145.688 23.8678 145.438 23.5537C145.193 23.2345 144.823 23.0749 144.329 23.0749ZM152.303 27.9541H156.336V29.9529H149.063V28.3265L153.015 23.6373H149.138V21.6385H156.254V23.2649L152.303 27.9541Z" fill="#E7EFFF"/>
<path d="M12.8484 6.17543C5.68607 6.22969 -0.755778 17.3683 17.4826 29.1458C17.7819 29.3614 18.0828 29.5524 18.3849 29.717C18.4972 29.7866 18.6085 29.8554 18.7226 29.925C18.7352 29.9191 18.7486 29.9139 18.7613 29.9079C18.7735 29.9137 18.7859 29.9193 18.7982 29.925C18.9138 29.8545 19.0273 29.784 19.141 29.7136C19.4414 29.5496 19.7422 29.3602 20.0399 29.1458C39.036 16.879 31.2576 5.30496 23.7785 6.22658C20.8398 6.58895 19.4338 8.22628 18.7613 9.65517C18.0887 8.22621 16.6813 6.58897 13.7423 6.22658C13.4439 6.18981 13.1459 6.17317 12.8484 6.17543Z" fill="white"/>
<rect x="12.1947" y="15.675" width="13.1327" height="4.75" fill="#1CABE2"/>
<rect x="16.4159" y="11.4" width="4.69027" height="13.3" fill="#1CABE2"/>
</svg>
