<svg width="21" height="19" viewBox="0 0 21 19" fill="none" xmlns="http://www.w3.org/2000/svg">
<path d="M16.8 11.25C18.141 9.93598 19.5 8.36098 19.5 6.29998C19.5 4.98715 18.9785 3.7281 18.0502 2.7998C17.1219 1.87149 15.8628 1.34998 14.55 1.34998C12.966 1.34998 11.85 1.79998 10.5 3.14998C9.15 1.79998 8.034 1.34998 6.45 1.34998C5.13718 1.34998 3.87813 1.87149 2.94982 2.7998C2.02152 3.7281 1.5 4.98715 1.5 6.29998C1.5 8.36998 2.85 9.94498 4.2 11.25L10.5 17.55L16.8 11.25Z" stroke="white" stroke-width="2" stroke-linecap="round" stroke-linejoin="round"/>
<path d="M10.4998 3.15002L7.83585 5.81402C7.65299 5.99556 7.50786 6.21148 7.40882 6.44936C7.30978 6.68723 7.25879 6.94236 7.25879 7.20002C7.25879 7.45769 7.30978 7.71281 7.40882 7.95069C7.50786 8.18856 7.65299 8.40449 7.83585 8.58602C8.57385 9.32402 9.75285 9.35102 10.5358 8.64902L12.3988 6.93902C12.8658 6.5153 13.4738 6.28058 14.1043 6.28058C14.7349 6.28058 15.3429 6.5153 15.8098 6.93902L18.4738 9.33302M15.8998 12.15L14.0998 10.35M13.1998 14.85L11.3998 13.05" stroke="white" stroke-width="2" stroke-linecap="round" stroke-linejoin="round"/>
</svg>
